<svg width="97" height="98" viewBox="0 0 97 98" fill="none" xmlns="http://www.w3.org/2000/svg">
<path d="M95.6808 83.877L76.791 64.9872C75.9384 64.1346 74.7826 63.6609 73.57 63.6609H70.4817C75.711 56.9727 78.8183 48.5604 78.8183 39.4091C78.8183 17.6394 61.1789 0 39.4091 0C17.6394 0 0 17.6394 0 39.4091C0 61.1789 17.6394 78.8183 39.4091 78.8183C48.5604 78.8183 56.9727 75.711 63.6609 70.4817V73.57C63.6609 74.7826 64.1346 75.9384 64.9872 76.791L83.877 95.6808C85.658 97.4618 88.5379 97.4618 90.3 95.6808L95.6619 90.3189C97.4429 88.5379 97.4429 85.658 95.6808 83.877ZM39.4091 63.6609C26.0138 63.6609 15.1574 52.8234 15.1574 39.4091C15.1574 26.0138 25.9949 15.1574 39.4091 15.1574C52.8044 15.1574 63.6609 25.9949 63.6609 39.4091C63.6609 52.8045 52.8234 63.6609 39.4091 63.6609Z" fill="white"/>
</svg>